<svg width="641" height="433" viewBox="0 0 641 433" fill="none" xmlns="http://www.w3.org/2000/svg">
<g clip-path="url(#clip0_79_23)">
<path d="M319.18 76.9999C339.253 76.9999 359.113 77.8165 378.76 79.4499L402.89 20.6099C348.344 14.7791 293.339 14.6652 238.77 20.2699L262.93 79.1899C281.49 77.7499 300.24 77.0199 319.18 76.9999Z" fill="#D1D1D1"/>
<path d="M537.18 47.1001C525.393 43.6735 513.49 40.5135 501.47 37.6201L478.08 94.6701C490.153 97.4035 502.11 100.433 513.95 103.76L537.18 47.1001Z" fill="#D1D1D1"/>
<path d="M104.28 47.1001C116.067 43.6735 127.967 40.5135 139.98 37.6201L163.38 94.6701C151.3 97.4035 139.344 100.433 127.51 103.76L104.28 47.1001Z" fill="#D1D1D1"/>
<path d="M142.82 0L321.66 430.95L495.53 0H430.95L320.42 259.56L209.89 0H142.82Z" fill="#D1D1D1"/>
<path d="M0 0H65.82L175.11 259.56L203.68 191.26L239.69 278.19L176.35 432.19L0 0Z" fill="#D1D1D1"/>
<path d="M640.84 0H575.02L465.73 259.56L437.16 191.26L401.15 278.19L464.49 432.19L640.84 0Z" fill="#D1D1D1"/>
<path d="M327.87 68.3101H312.97V103.08H327.87V68.3101Z" fill="#D1D1D1"/>
<path d="M327.87 145.31H312.97V187.54H327.87V145.31Z" fill="#D1D1D1"/>
<path d="M320.42 132.88C325.22 132.88 329.11 128.989 329.11 124.19C329.11 119.391 325.22 115.5 320.42 115.5C315.621 115.5 311.73 119.391 311.73 124.19C311.73 128.989 315.621 132.88 320.42 132.88Z" fill="#D1D1D1"/>
<path d="M295.58 115.5H276.95L283.16 131.65H295.58V115.5Z" fill="#D1D1D1"/>
<path d="M295.58 115.5H276.95L283.16 131.65" fill="#D1D1D1"/>
<path d="M284.4 131.65L276.95 115.5H299.31L301.79 131.65H284.4Z" fill="#D1D1D1"/>
<path d="M355.19 131.65L362.65 115.5H340.29L337.81 131.65H355.19Z" fill="#D1D1D1"/>
</g>
<defs>
<clipPath id="clip0_79_23">
<rect width="640.84" height="432.19" fill="white"/>
</clipPath>
</defs>
</svg>
