<svg id="Layer_2" data-name="Layer 2" xmlns="http://www.w3.org/2000/svg" viewBox="0 0 640.84 432.19"><path d="M496.9,360.9q30.11,0,59.58,2.45l24.13-58.84a787.29,787.29,0,0,0-164.12-.34l24.16,58.92Q468.49,360.93,496.9,360.9Z" transform="translate(-177.72 -283.9)"/><path d="M714.9,331q-17.68-5.14-35.71-9.48L655.8,378.57q18.11,4.1,35.87,9.09Z" transform="translate(-177.72 -283.9)"/><path d="M282,331q17.68-5.14,35.7-9.48l23.4,57.05q-18.12,4.1-35.87,9.09Z" transform="translate(-177.72 -283.9)"/><polygon points="142.82 0 321.66 430.95 495.53 0 430.95 0 320.42 259.56 209.89 0 142.82 0"/><polygon points="0 0 65.82 0 175.11 259.56 203.68 191.26 239.69 278.19 176.35 432.19 0 0"/><polygon points="640.84 0 575.02 0 465.73 259.56 437.16 191.26 401.15 278.19 464.49 432.19 640.84 0"/><rect x="312.97" y="68.31" width="14.9" height="34.77"/><rect x="312.97" y="145.31" width="14.9" height="42.23"/><circle cx="320.42" cy="124.19" r="8.69"/><polygon points="295.58 115.5 276.95 115.5 283.16 131.65 295.58 131.65 295.58 115.5"/><polyline points="295.58 115.5 276.95 115.5 283.16 131.65"/><polygon points="284.4 131.65 276.95 115.5 299.31 115.5 301.79 131.65 284.4 131.65"/><polygon points="355.19 131.65 362.65 115.5 340.29 115.5 337.81 131.65 355.19 131.65"/></svg>