<svg width="641" height="433" viewBox="0 0 641 433" fill="none" xmlns="http://www.w3.org/2000/svg">
<g clip-path="url(#clip0_11_15)">
<path d="M319.18 77.0003C339.253 77.0003 359.113 77.817 378.76 79.4504L402.89 20.6104C348.344 14.7796 293.339 14.6657 238.77 20.2704L262.93 79.1903C281.49 77.7503 300.24 77.0203 319.18 77.0003Z" fill="#A56EF4"/>
<path d="M537.18 47.0992C525.393 43.6725 513.49 40.5125 501.47 37.6191L478.08 94.6692C490.153 97.4025 502.11 100.432 513.95 103.759L537.18 47.0992Z" fill="#A56EF4"/>
<path d="M104.279 47.0992C116.066 43.6725 127.966 40.5125 139.979 37.6191L163.379 94.6692C151.299 97.4025 139.343 100.432 127.509 103.759L104.279 47.0992Z" fill="#A56EF4"/>
<path d="M142.82 0L321.66 430.95L495.53 0H430.95L320.42 259.56L209.89 0H142.82Z" fill="#A56EF4"/>
<path d="M0 0H65.82L175.11 259.56L203.68 191.26L239.69 278.19L176.35 432.19L0 0Z" fill="#A56EF4"/>
<path d="M640.84 0H575.02L465.73 259.56L437.16 191.26L401.15 278.19L464.49 432.19L640.84 0Z" fill="#A56EF4"/>
<path d="M327.871 68.3105H312.971V103.081H327.871V68.3105Z" fill="#A56EF4"/>
<path d="M327.871 145.311H312.971V187.541H327.871V145.311Z" fill="#A56EF4"/>
<path d="M320.42 132.88C325.22 132.88 329.11 128.989 329.11 124.19C329.11 119.391 325.22 115.5 320.42 115.5C315.621 115.5 311.73 119.391 311.73 124.19C311.73 128.989 315.621 132.88 320.42 132.88Z" fill="#A56EF4"/>
<path d="M295.579 115.5H276.949L283.159 131.65H295.579V115.5Z" fill="#A56EF4"/>
<path d="M295.579 115.5H276.949L283.159 131.65" fill="#A56EF4"/>
<path d="M284.399 131.65L276.949 115.5H299.309L301.789 131.65H284.399Z" fill="#A56EF4"/>
<path d="M355.191 131.65L362.651 115.5H340.291L337.811 131.65H355.191Z" fill="#A56EF4"/>
</g>
<defs>
<clipPath id="clip0_11_15">
<rect width="640.84" height="432.19" fill="white"/>
</clipPath>
</defs>
</svg>
