<svg width="380" height="380" viewBox="0 0 380 380" fill="none" xmlns="http://www.w3.org/2000/svg">
<circle cx="190" cy="190" r="160" fill="#8552D9"/>
<path d="M190 189V190" stroke="white" stroke-width="17" stroke-linecap="round"/>
<path fill-rule="evenodd" clip-rule="evenodd" d="M189.85 115C236.446 115 275.598 146.869 286.699 190C275.598 233.131 236.446 265 189.85 265C143.254 265 104.101 233.131 93 190C104.101 146.869 143.254 115 189.85 115ZM189.85 248.333C152.553 248.333 120.944 223.818 110.326 190C120.944 156.182 152.553 131.667 189.85 131.667C227.146 131.667 258.755 156.182 269.373 190C258.755 223.818 227.146 248.333 189.85 248.333Z" fill="white"/>
<path d="M190 144V172" stroke="white" stroke-width="14"/>
<path d="M190 208V236" stroke="white" stroke-width="14"/>
<path d="M236 190L208 190" stroke="white" stroke-width="14"/>
<path d="M172 190L144 190" stroke="white" stroke-width="14"/>
</svg>
